<?xml version="1.0" encoding="UTF-8"?>
<svg version="1.1" xmlns="http://www.w3.org/2000/svg" width="64" height="64">
<path d="M0 0 C4.73941245 2.94242901 8.60904599 7.13963798 10.375 12.4375 C10.4755123 14.16575319 10.55668533 15.89517489 10.625 17.625 C11.01399451 22.69534228 12.3034262 25.70507273 15.4140625 29.68359375 C16.375 31.4375 16.375 31.4375 16.0234375 33.66015625 C15.80945312 34.24667969 15.59546875 34.83320312 15.375 35.4375 C13.395 35.9325 13.395 35.9325 11.375 36.4375 C11.33632812 37.45070313 11.33632812 37.45070313 11.296875 38.484375 C10.8409591 45.65468871 10.8409591 45.65468871 8.8125 49.0625 C5.21366982 51.09260933 2.47081063 50.71055404 -1.625 50.4375 C-1.625 52.0875 -1.625 53.7375 -1.625 55.4375 C-10.02302254 55.55940678 -18.26751778 55.28077749 -26.625 54.4375 C-26.75455078 52.7359375 -26.75455078 52.7359375 -26.88671875 51 C-27.63655658 42.55426104 -28.26640442 36.30749433 -33.625 29.4375 C-35.62091928 23.44974217 -35.86383728 15.88702104 -33.71875 9.9140625 C-26.87210609 -1.54089943 -12.32327685 -5.62114382 0 0 Z M-13.625 7.4375 C-13.955 8.7575 -14.285 10.0775 -14.625 11.4375 C-16.5 12.0625 -16.5 12.0625 -18.625 12.4375 C-19.285 11.7775 -19.945 11.1175 -20.625 10.4375 C-22.7769437 13.66541555 -22.82586443 14.72150809 -22.625 18.4375 C-23.615 18.7675 -24.605 19.0975 -25.625 19.4375 C-25.295 20.4275 -24.965 21.4175 -24.625 22.4375 C-23.635 22.4375 -22.645 22.4375 -21.625 22.4375 C-21 24.3125 -21 24.3125 -20.625 26.4375 C-21.285 27.0975 -21.945 27.7575 -22.625 28.4375 C-19.39708445 30.5894437 -18.34099191 30.63836443 -14.625 30.4375 C-14.295 31.4275 -13.965 32.4175 -13.625 33.4375 C-12.635 33.1075 -11.645 32.7775 -10.625 32.4375 C-10.625 31.4475 -10.625 30.4575 -10.625 29.4375 C-8.75 28.8125 -8.75 28.8125 -6.625 28.4375 C-5.965 29.0975 -5.305 29.7575 -4.625 30.4375 C-2.4730563 27.20958445 -2.42413557 26.15349191 -2.625 22.4375 C-1.635 22.1075 -0.645 21.7775 0.375 21.4375 C0.045 20.4475 -0.285 19.4575 -0.625 18.4375 C-1.615 18.4375 -2.605 18.4375 -3.625 18.4375 C-4.25 16.5625 -4.25 16.5625 -4.625 14.4375 C-3.965 13.7775 -3.305 13.1175 -2.625 12.4375 C-5.85291555 10.2855563 -6.90900809 10.23663557 -10.625 10.4375 C-10.955 9.4475 -11.285 8.4575 -11.625 7.4375 C-12.285 7.4375 -12.945 7.4375 -13.625 7.4375 Z " fill="#FAB004" transform="translate(42.625,5.5625)"/>
<path d="M0 0 C2.375 1.625 2.375 1.625 4 4 C4.61195145 7.6717087 4.48706506 9.28813568 2.375 12.375 C-0.71186432 14.48706506 -2.3282913 14.61195145 -6 14 C-8.375 12.375 -8.375 12.375 -10 10 C-10.61195145 6.3282913 -10.48706506 4.71186432 -8.375 1.625 C-5.28813568 -0.48706506 -3.6717087 -0.61195145 0 0 Z M-5 5 C-5 6.32 -5 7.64 -5 9 C-3.68 8.67 -2.36 8.34 -1 8 C-1 7.01 -1 6.02 -1 5 C-2.32 5 -3.64 5 -5 5 Z " fill="#FAB404" transform="translate(33,19)"/>
</svg>
